<svg width="22" height="18" viewBox="0 0 22 18" fill="none" xmlns="http://www.w3.org/2000/svg">
<path d="M0.4375 2.00003H13.5625C13.804 2.00003 14 1.55303 14 1.00003C14 0.447031 13.804 3.05176e-05 13.5625 3.05176e-05H0.4375C0.196 3.05176e-05 0 0.447031 0 1.00003C0 1.55303 0.195563 2.00003 0.4375 2.00003Z" fill="white"/>
<path d="M7.46875 18H21.5312C21.79 18 22 17.553 22 17C22 16.447 21.79 16 21.5312 16H7.46875C7.21 16 7 16.447 7 17C7 17.553 7.20953 18 7.46875 18Z" fill="white"/>
<path d="M0.6875 10H21.3125C21.692 10 22 9.55303 22 9.00003C22 8.44703 21.692 8.00003 21.3125 8.00003H0.6875C0.308 8.00003 0 8.44703 0 9.00003C0 9.55303 0.307313 10 0.6875 10Z" fill="white"/>
</svg>
